<svg xmlns="http://www.w3.org/2000/svg" viewBox="0 0 236.33 193.81"><defs><style>.cls-1{fill:#335eea;}</style></defs><title>laze_logo_1</title><g id="Logo"><polygon class="cls-1" points="135.51 59.87 99.18 59.87 99.18 23.55 77.29 1.65 77.29 81.55 157.19 81.55 135.51 59.87"/><polygon class="cls-1" points="101.09 21.54 137.51 21.54 137.51 57.96 159.18 79.63 159.18 0 79.55 0 101.09 21.54"/></g><g id="L"><rect class="cls-1" y="116.98" width="16.84" height="74.96"/><rect class="cls-1" y="177.72" width="45.9" height="14.22"/></g><g id="A"><path class="cls-1" d="M146.5,181.52v21.1a17.34,17.34,0,0,1,0,12.47v21.65h15.44V181.52Z" transform="translate(-50.06 -44.7)"/><path class="cls-1" d="M130.15,180.16c-14.71,0-26.64,13-26.64,29s11.93,29,26.64,29,26.64-13,26.64-29S144.86,180.16,130.15,180.16Zm2.95,44.59c-8,0-14.57-7.12-14.57-15.89S125.05,193,133.1,193s14.56,7.12,14.56,15.9S141.14,224.75,133.1,224.75Z" transform="translate(-50.06 -44.7)"/></g><g id="Z"><polygon class="cls-1" points="172.33 136.74 120.84 136.74 120.84 149.59 148.98 149.59 120.84 191.32 120.84 192.05 172.33 192.05 172.33 179.11 144.63 179.11 172.33 137.71 172.33 136.74"/></g><g id="E"><path class="cls-1" d="M273.9,221.89a21.5,21.5,0,0,1-12,3.37c-9.23,0-16.72-4.94-16.72-11h20.38l0,0H286a30,30,0,0,0,.42-5c0-16.16-12.71-29.26-28.39-29.26s-28.4,13.1-28.4,29.26,12.71,29.26,28.4,29.26a28,28,0,0,0,22.11-10.92ZM258.71,193.2c6.81,0,12.42,4.64,13.17,10.61H245.54C246.29,197.84,251.9,193.2,258.71,193.2Z" transform="translate(-50.06 -44.7)"/><path class="cls-1" d="M273.88,221.87a21.32,21.32,0,0,1-12.08,3.45c-9.19,0-16.64-4.91-16.64-11v0H230c2.61,13.67,15.17,24,30.28,24a31.49,31.49,0,0,0,22-8.77Z" transform="translate(-50.06 -44.7)"/></g></svg>