<svg id="Layer_1" data-name="Layer 1" xmlns="http://www.w3.org/2000/svg" viewBox="0 0 77.23 18.27"><defs><style>.cls-1{fill:#335eea;}</style></defs><title>laze_logo_2</title><polygon class="cls-1" points="13.04 13.41 4.91 13.41 4.91 5.28 0 0.37 0 18.27 17.9 18.27 13.04 13.41"/><polygon class="cls-1" points="5.33 4.83 13.49 4.83 13.49 12.99 18.35 17.84 18.35 0 0.51 0 5.33 4.83"/><rect class="cls-1" x="24.28" y="0.69" width="3.77" height="16.79"/><rect class="cls-1" x="24.28" y="14.3" width="10.28" height="3.19"/><path class="cls-1" d="M46.25,5.52v4.73a3.79,3.79,0,0,1,.26,1.4A3.74,3.74,0,0,1,46.25,13v4.85h3.46V5.52Z" transform="translate(-0.36 -0.38)"/><path class="cls-1" d="M42.59,5.22a6.24,6.24,0,0,0-6,6.49,6.25,6.25,0,0,0,6,6.49,6.25,6.25,0,0,0,6-6.49A6.24,6.24,0,0,0,42.59,5.22Zm.66,10A3.42,3.42,0,0,1,40,11.65a3.27,3.27,0,1,1,6.52,0A3.42,3.42,0,0,1,43.25,15.21Z" transform="translate(-0.36 -0.38)"/><polygon class="cls-1" points="62.89 5.12 51.36 5.12 51.36 8 57.66 8 51.36 17.35 51.36 17.51 62.89 17.51 62.89 14.61 56.69 14.61 62.89 5.34 62.89 5.12"/><path class="cls-1" d="M74.8,14.57a4.89,4.89,0,0,1-2.7.75c-2.07,0-3.74-1.1-3.74-2.47H77.5a6.83,6.83,0,0,0,.09-1.11,6.36,6.36,0,1,0-12.72,0,6.46,6.46,0,0,0,6.36,6.55,6.26,6.26,0,0,0,5-2.45ZM71.39,8.14a2.87,2.87,0,0,1,3,2.38h-5.9A2.88,2.88,0,0,1,71.39,8.14Z" transform="translate(-0.36 -0.38)"/><path class="cls-1" d="M74.79,14.56a4.75,4.75,0,0,1-2.71.78c-2,0-3.72-1.11-3.72-2.46H65a6.81,6.81,0,0,0,6.78,5.38,7,7,0,0,0,4.92-2Z" transform="translate(-0.36 -0.38)"/></svg>