<?xml version="1.0" standalone="no"?>
<!DOCTYPE svg PUBLIC "-//W3C//DTD SVG 20010904//EN"
 "http://www.w3.org/TR/2001/REC-SVG-20010904/DTD/svg10.dtd">
<svg version="1.0" xmlns="http://www.w3.org/2000/svg"
 width="342.000000pt" height="342.000000pt" viewBox="0 0 342.000000 342.000000"
 preserveAspectRatio="xMidYMid meet">
<metadata>
Created by potrace 1.11, written by Peter Selinger 2001-2013
</metadata>
<g transform="translate(0.000000,342.000000) scale(0.100000,-0.100000)"
fill="#000000" stroke="none">
<path d="M110 3401 c0 -3 200 -206 444 -450 l443 -443 759 -1 759 -2 0 -757 0
-758 453 -452 452 -453 0 1661 0 1662 -1655 0 c-910 0 -1655 -3 -1655 -7z"/>
<path d="M5 1675 l0 -1665 30 -1 c145 -3 3287 -1 3290 3 2 2 -197 206 -444
452 l-448 448 -757 0 -756 0 0 757 0 756 -458 458 -457 457 0 -1665z"/>
</g>
</svg>
